# File created by Blade
# Date/Time:  Wed Jan 21 15:15:22 2015
# Frame Rate: 120.000 fps
#------------------------------------------------------
:FULLY-SPECIFIED
:DEGREES
1293
root 18.141720 35.229515 -23.575720 38.000901 -87.788289 -29.599997
Spine -19.738926 0.121409 0.220132
Head 8.774336 -2.312567 -0.534169
LeftShoulder -14.520342 -34.256301 22.150724
LeftArm 2.212333 4.469894 -9.051247
LeftForeArm 10.739008 -0.000000 -2.408607
LeftHand -7.468544 -0.000000 -4.705042
LeftHandThumb1 -26.253704 0.000000 33.147579
RightShoulder -12.896276 -5.249458 -10.636093
RightArm 10.450799 34.141977 13.923412
RightForeArm -36.620460 -0.000000 5.318965
RightHand -8.323220 -0.000000 7.559462
RightHandThumb1 -24.326973 -0.000000 -32.862282
LeftUpLeg -1.106785 6.871293 5.308846
LeftLeg -4.923677 -0.000000 0.000000
LeftFoot -20.456908 25.013223 -13.010379
LeftToeBase 27.647680 -0.000000 -0.000000
RightUpLeg -0.982202 -6.829273 -3.324580
RightLeg -0.727638 -0.000000 0.000000
RightFoot -22.900632 -22.500789 17.101662
RightToeBase 24.287834 -0.000000 -0.000000
1294
root 18.138772 35.230701 -23.567306 36.880270 -87.774069 -28.420016
Spine -19.851793 0.113495 0.198882
Head 8.781223 -2.266303 -0.533060
LeftShoulder -14.494619 -34.330888 22.160869
LeftArm 2.258848 4.487989 -9.054499
LeftForeArm 10.748998 -0.000000 -2.375400
LeftHand -7.439709 -0.000000 -4.810000
LeftHandThumb1 -26.253704 0.000000 33.147579
RightShoulder -12.900864 -5.196637 -10.670346
RightArm 10.420236 34.087026 13.923866
RightForeArm -36.587626 0.000000 5.270581
RightHand -8.301191 0.000000 7.609403
RightHandThumb1 -24.326973 -0.000000 -32.862282
LeftUpLeg -1.190594 6.927378 5.252217
LeftLeg -4.886539 -0.000000 0.000000
LeftFoot -20.442456 24.939394 -13.002593
LeftToeBase 27.668738 -0.000000 -0.000000
RightUpLeg -0.999843 -6.881870 -3.365537
RightLeg -0.781101 -0.000000 0.000000
RightFoot -22.875761 -22.471034 17.149555
RightToeBase 24.288717 -0.000000 -0.000000
1295
root 18.136074 35.232436 -23.558730 36.095213 -87.766567 -27.559287
Spine -19.987841 0.116106 0.185812
Head 8.792206 -2.235187 -0.535373
LeftShoulder -14.469171 -34.406912 22.175780
LeftArm 2.292897 4.550625 -9.061083
LeftForeArm 10.774788 0.000000 -2.343087
LeftHand -7.493332 -0.000000 -4.811832
LeftHandThumb1 -26.253704 0.000000 33.147579
RightShoulder -12.888711 -5.152223 -10.694777
RightArm 10.366291 34.062249 13.900033
RightForeArm -36.577793 -0.000000 5.216749
RightHand -8.195843 -0.000000 7.768632
RightHandThumb1 -24.326973 -0.000000 -32.862282
LeftUpLeg -1.282323 7.003277 5.197499
LeftLeg -4.865896 -0.000000 0.000000
LeftFoot -20.429461 24.863784 -13.018159
LeftToeBase 27.660143 -0.000000 -0.000000
RightUpLeg -1.037402 -6.907774 -3.396708
RightLeg -0.837592 -0.000000 0.000000
RightFoot -22.856107 -22.468435 17.223879
RightToeBase 24.250880 -0.000000 -0.000000
1296
root 18.126388 35.233479 -23.550376 34.989145 -87.738876 -26.433494
Spine -20.065239 0.102419 0.176781
Head 8.798560 -2.199794 -0.538502
LeftShoulder -14.419898 -34.470273 22.161984
LeftArm 2.324513 4.617681 -9.048987
LeftForeArm 10.787122 -0.000000 -2.336719
LeftHand -7.453140 0.000000 -4.828804
LeftHandThumb1 -26.253704 0.000000 33.147579
RightShoulder -12.889973 -5.113685 -10.718312
RightArm 10.337050 34.042585 13.887693
RightForeArm -36.573698 -0.000000 5.140563
RightHand -8.084176 0.000000 7.976153
RightHandThumb1 -24.326973 -0.000000 -32.862282
LeftUpLeg -1.290147 7.037363 5.155974
LeftLeg -4.880922 -0.000000 0.000000
LeftFoot -20.401501 24.794711 -13.025846
LeftToeBase 27.625606 -0.000000 -0.000000
RightUpLeg -0.986458 -6.986285 -3.430515
RightLeg -0.926438 -0.000000 0.000000
RightFoot -22.819340 -22.440533 17.272000
RightToeBase 24.227067 -0.000000 -0.000000
1297
root 18.117394 35.233886 -23.541864 34.128862 -87.725221 -25.552190
Spine -20.134574 0.095395 0.172946
Head 8.797992 -2.156119 -0.547388
LeftShoulder -14.385165 -34.540971 22.159360
LeftArm 2.343733 4.686322 -9.038884
LeftForeArm 10.751907 -0.000000 -2.334047
LeftHand -7.419728 -0.000000 -4.854189
LeftHandThumb1 -26.253704 0.000000 33.147579
RightShoulder -12.865206 -5.058121 -10.749913
RightArm 10.252306 34.018535 13.861632
RightForeArm -36.583131 0.000000 5.114811
RightHand -8.059708 -0.000000 8.159700
RightHandThumb1 -24.326973 -0.000000 -32.862282
LeftUpLeg -1.290506 7.098647 5.114347
LeftLeg -4.906150 -0.000000 0.000000
LeftFoot -20.368150 24.713351 -13.008517
LeftToeBase 27.613954 -0.000000 -0.000000
RightUpLeg -0.935988 -7.044637 -3.461463
RightLeg -1.031198 -0.000000 0.000000
RightFoot -22.780603 -22.432783 17.280028
RightToeBase 24.150454 -0.000000 -0.000000
1298
root 18.108849 35.234205 -23.533794 32.932321 -87.703538 -24.337836
Spine -20.202460 0.066368 0.159262
Head 8.789296 -2.095048 -0.528727
LeftShoulder -14.338830 -34.592312 22.149767
LeftArm 2.354971 4.738463 -9.019294
LeftForeArm 10.725776 -0.000000 -2.347831
LeftHand -7.424791 -0.000000 -4.846031
LeftHandThumb1 -26.253704 0.000000 33.147579
RightShoulder -12.855006 -5.042540 -10.765729
RightArm 10.224656 33.999107 13.855616
RightForeArm -36.611842 -0.000000 5.055121
RightHand -8.018409 -0.000000 8.180796
RightHandThumb1 -24.326973 -0.000000 -32.862282
LeftUpLeg -1.285992 7.130787 5.066179
LeftLeg -4.943268 -0.000000 0.000000
LeftFoot -20.326037 24.644261 -13.009999
LeftToeBase 27.631656 -0.000000 -0.000000
RightUpLeg -0.878250 -7.105075 -3.499305
RightLeg -1.136589 -0.000000 0.000000
RightFoot -22.740381 -22.443923 17.295064
RightToeBase 24.130727 -0.000000 -0.000000
1299
root 18.103241 35.234355 -23.524791 32.220307 -87.714707 -23.597111
Spine -20.254767 0.071688 0.152052
Head 8.720456 -2.037958 -0.533568
LeftShoulder -14.323805 -34.649035 22.144834
LeftArm 2.364901 4.795613 -8.996823
LeftForeArm 10.716722 0.000000 -2.348061
LeftHand -7.404757 0.000000 -4.883776
LeftHandThumb1 -26.253704 0.000000 33.147579
RightShoulder -12.846816 -4.980894 -10.794185
RightArm 10.178276 33.953223 13.844744
RightForeArm -36.584861 -0.000000 5.000874
RightHand -8.048963 -0.000000 8.256993
RightHandThumb1 -24.326973 -0.000000 -32.862282
LeftUpLeg -1.289146 7.170206 5.013440
LeftLeg -4.978520 -0.000000 0.000000
LeftFoot -20.300647 24.617624 -13.026153
LeftToeBase 27.556266 -0.000000 -0.000000
RightUpLeg -0.853464 -7.103414 -3.537825
RightLeg -1.223029 -0.000000 0.000000
RightFoot -22.706507 -22.504363 17.265909
RightToeBase 24.138945 -0.000000 -0.000000
1300
root 18.094499 35.234269 -23.516384 31.434893 -87.713250 -22.797628
Spine -20.302721 0.056023 0.155184
Head 8.670896 -1.966279 -0.535071
LeftShoulder -14.300978 -34.700602 22.137164
LeftArm 2.359533 4.844422 -8.966097
LeftForeArm 10.726007 -0.000000 -2.354583
LeftHand -7.409484 -0.000000 -4.856816
LeftHandThumb1 -26.253704 0.000000 33.147579
RightShoulder -12.839673 -4.970399 -10.808218
RightArm 10.168551 33.954755 13.845900
RightForeArm -36.640691 0.000000 4.958480
RightHand -8.005498 -0.000000 8.251764
RightHandThumb1 -24.326973 -0.000000 -32.862282
LeftUpLeg -1.265302 7.208394 4.969283
LeftLeg -5.033799 -0.000000 0.000000
LeftFoot -20.277484 24.574147 -13.067980
LeftToeBase 27.567103 -0.000000 -0.000000
RightUpLeg -0.794911 -7.109400 -3.572139
RightLeg -1.330468 -0.000000 0.000000
RightFoot -22.673443 -22.554962 17.292736
RightToeBase 24.117602 -0.000000 -0.000000
1301
root 18.093451 35.234382 -23.506515 30.832446 -87.755429 -22.114610
Spine -20.411455 0.075793 0.136762
Head 8.607976 -1.890271 -0.526159
LeftShoulder -14.282403 -34.722318 22.134025
LeftArm 2.350641 4.845936 -8.937127
LeftForeArm 10.796359 0.000000 -2.353284
LeftHand -7.411358 0.000000 -4.833204
LeftHandThumb1 -26.253704 0.000000 33.147579
RightShoulder -12.822286 -4.946287 -10.827215
RightArm 10.127889 33.935542 13.838575
RightForeArm -36.625655 -0.000000 4.931990
RightHand -7.959426 -0.000000 8.463116
RightHandThumb1 -24.326973 -0.000000 -32.862282
LeftUpLeg -1.318194 7.271717 4.894887
LeftLeg -5.078388 -0.000000 0.000000
LeftFoot -20.239233 24.552904 -13.079563
LeftToeBase 27.540250 -0.000000 -0.000000
RightUpLeg -0.845165 -7.048160 -3.621223
RightLeg -1.395221 -0.000000 0.000000
RightFoot -22.660789 -22.628201 17.292409
RightToeBase 24.074578 -0.000000 -0.000000
1302
root 18.082570 35.234044 -23.498487 30.159059 -87.738847 -21.429897
Spine -20.452572 0.046919 0.156310
Head 8.542751 -1.820557 -0.514837
LeftShoulder -14.268253 -34.745873 22.133098
LeftArm 2.328710 4.868683 -8.918818
LeftForeArm 10.812264 -0.000000 -2.354381
LeftHand -7.391907 -0.000000 -4.809256
LeftHandThumb1 -26.253704 0.000000 33.147579
RightShoulder -12.832154 -4.945705 -10.825702
RightArm 10.135905 33.936798 13.826952
RightForeArm -36.683561 0.000000 4.898251
RightHand -7.978270 -0.000000 8.662444
RightHandThumb1 -24.326973 -0.000000 -32.862282
LeftUpLeg -1.287726 7.295479 4.864413
LeftLeg -5.137445 -0.000000 0.000000
LeftFoot -20.204602 24.522297 -13.074406
LeftToeBase 27.539629 -0.000000 -0.000000
RightUpLeg -0.780044 -7.051609 -3.646977
RightLeg -1.498794 -0.000000 0.000000
RightFoot -22.613596 -22.684059 17.276173
RightToeBase 24.072398 -0.000000 -0.000000
1303
root 18.073320 35.232832 -23.488589 28.963692 -87.726430 -20.223885
Spine -20.487004 0.004880 0.156566
Head 8.475146 -1.753646 -0.498983
LeftShoulder -14.253909 -34.761632 22.127410
LeftArm 2.305692 4.833377 -8.894025
LeftForeArm 10.882810 0.000000 -2.384880
LeftHand -7.368351 0.000000 -4.758625
LeftHandThumb1 -26.253704 0.000000 33.147579
RightShoulder -12.825441 -4.936198 -10.835624
RightArm 10.128604 33.973226 13.821380
RightForeArm -36.720913 -0.000000 4.849126
RightHand -7.908110 -0.000000 8.597760
RightHandThumb1 -24.326973 -0.000000 -32.862282
LeftUpLeg -1.259794 7.312775 4.809465
LeftLeg -5.197957 -0.000000 0.000000
LeftFoot -20.174262 24.486330 -13.084874
LeftToeBase 27.569540 -0.000000 -0.000000
RightUpLeg -0.726275 -7.070403 -3.699723
RightLeg -1.580424 -0.000000 0.000000
RightFoot -22.608544 -22.725447 17.283254
RightToeBase 24.098313 -0.000000 -0.000000
1304
root 18.064426 35.231963 -23.479652 28.207494 -87.717486 -19.460993
Spine -20.509548 -0.035819 0.175506
Head 8.401746 -1.674423 -0.476197
LeftShoulder -14.258986 -34.791276 22.138297
LeftArm 2.272793 4.798256 -8.869271
LeftForeArm 10.847867 -0.000000 -2.383195
LeftHand -7.347289 -0.000000 -4.876284
LeftHandThumb1 -26.253704 0.000000 33.147579
RightShoulder -12.807249 -4.879568 -10.854639
RightArm 10.092874 33.940521 13.803635
RightForeArm -36.767961 -0.000000 4.841927
RightHand -7.828157 -0.000000 8.547021
RightHandThumb1 -24.326973 -0.000000 -32.862282
LeftUpLeg -1.227599 7.335797 4.768450
LeftLeg -5.253918 -0.000000 0.000000
LeftFoot -20.131638 24.459355 -13.089178
LeftToeBase 27.521189 -0.000000 -0.000000
RightUpLeg -0.674402 -7.101095 -3.735398
RightLeg -1.657048 -0.000000 0.000000
RightFoot -22.580291 -22.749558 17.270934
RightToeBase 24.091923 -0.000000 -0.000000
1305
root 18.056909 35.230946 -23.470985 27.839128 -87.725198 -19.081344
Spine -20.545782 -0.051098 0.196574
Head 8.361431 -1.615133 -0.444682
LeftShoulder -14.241589 -34.809093 22.142687
LeftArm 2.231126 4.698643 -8.854018
LeftForeArm 10.886324 -0.000000 -2.402032
LeftHand -7.353544 -0.000000 -4.921623
LeftHandThumb1 -26.253704 0.000000 33.147579
RightShoulder -12.779788 -4.853835 -10.864391
RightArm 10.056491 33.926567 13.775731
RightForeArm -36.673536 0.000000 4.824131
RightHand -7.926258 -0.000000 8.597386
RightHandThumb1 -24.326973 -0.000000 -32.862282
LeftUpLeg -1.200780 7.407924 4.730588
LeftLeg -5.308798 -0.000000 0.000000
LeftFoot -20.107241 24.419300 -13.063703
LeftToeBase 27.524114 -0.000000 -0.000000
RightUpLeg -0.647622 -7.112698 -3.766233
RightLeg -1.712546 -0.000000 0.000000
RightFoot -22.560812 -22.752766 17.315475
RightToeBase 23.988034 -0.000000 -0.000000
